<svg width="74" height="62" viewBox="0 0 74 62" fill="none" xmlns="http://www.w3.org/2000/svg">
<path d="M13.12 39.52C9.14667 39.52 6.16 38.5867 4.16 36.72C2.18667 34.8267 1.2 31.8 1.2 27.64C1.2 23.56 2.29333 20.5867 4.48 18.72C6.66667 16.8533 9.56 15.92 13.16 15.92C20.7333 15.92 24.52 19.6933 24.52 27.24C24.52 31.0533 23.5867 34.0533 21.72 36.24C19.88 38.4267 17.0133 39.52 13.12 39.52ZM12.96 34.8C13.7067 34.8 14.3333 34.68 14.84 34.44C15.3467 34.1733 15.7467 33.72 16.04 33.08C16.6 31.9867 16.88 30.2 16.88 27.72C16.88 25.2933 16.6 23.5333 16.04 22.44C15.48 21.32 14.4533 20.7333 12.96 20.68C12.4 20.68 11.8133 20.7467 11.2 20.88C10.6133 20.9867 10.24 21.1467 10.08 21.36C9.76 21.7333 9.50667 22.5333 9.32 23.76C9.16 24.96 9.08 26.28 9.08 27.72C9.08 29.96 9.29333 31.6 9.72 32.64C10.0133 33.4133 10.4267 33.9733 10.96 34.32C11.4933 34.64 12.16 34.8 12.96 34.8ZM46.9031 39H39.4631L35.6631 31.52C35.2898 30.7467 34.7965 30.2533 34.1831 30.04V39H27.3431V15L34.1831 14.72V28.36C34.8231 28.0933 35.3698 27.5467 35.8231 26.72L39.2231 20.6L46.7031 20.56L42.8231 26.8C42.2098 27.7867 41.5431 28.5733 40.8231 29.16C41.4365 29.8267 42.1298 30.84 42.9031 32.2L46.9031 39Z" fill="black"/>
<path d="M10.2044 51H7.00444V43.0889H4.14222V40.8667H13.0667V43.0889H10.2044V51ZM18.2632 51L17.9788 49.88C17.4336 50.7689 16.675 51.2133 15.7032 51.2133C14.9091 51.2133 14.2573 50.9941 13.7476 50.5556C13.2499 50.1052 13.001 49.477 13.001 48.6711C13.001 48.1733 13.1432 47.7407 13.4276 47.3733C13.7239 46.9941 14.1269 46.7274 14.6365 46.5733C15.3002 46.3837 16.3254 46.277 17.7121 46.2533C17.7121 45.4711 17.6765 45.0563 17.6054 45.0089C17.5462 44.9615 17.3565 44.9378 17.0365 44.9378C16.835 44.9378 16.5565 44.9496 16.201 44.9733C15.6321 44.997 14.8617 45.0622 13.8899 45.1689C13.795 44.5289 13.7239 43.8415 13.6765 43.1067C14.3047 42.9763 14.9625 42.8696 15.6499 42.7867C16.3373 42.6919 16.9536 42.6444 17.4988 42.6444C18.4469 42.6444 19.158 42.8044 19.6321 43.1244C20.1062 43.4326 20.4143 43.8415 20.5565 44.3511C20.6988 44.8607 20.7639 45.5067 20.7521 46.2889L20.7343 48.9022L20.7876 51H18.2632ZM16.7343 49.2222C17.0425 49.2222 17.3684 49.163 17.7121 49.0444V47.7289H17.5699C16.6928 47.7289 16.2069 47.7763 16.1121 47.8711C16.0528 47.9304 16.0054 48.0193 15.9699 48.1378C15.9462 48.2563 15.9343 48.3689 15.9343 48.4756C15.9343 48.76 15.9995 48.9556 16.1299 49.0622C16.2602 49.1689 16.4617 49.2222 16.7343 49.2222ZM28.7381 48.2267C28.7381 49.2815 28.4003 50.04 27.7247 50.5022C27.061 50.9644 26.1129 51.1956 24.8803 51.1956C24.0151 51.1956 23.0195 51.0711 21.8936 50.8222C21.9173 50.5852 21.9706 50.2474 22.0536 49.8089C22.1484 49.3585 22.2255 49.0148 22.2847 48.7778C22.7114 48.8489 23.1855 48.9081 23.7069 48.9556C24.2284 48.9911 24.6729 49.0089 25.0403 49.0089C25.3603 49.0089 25.5558 48.9911 25.6269 48.9556C25.6388 48.9437 25.6506 48.9141 25.6625 48.8667C25.6862 48.8074 25.6981 48.7481 25.6981 48.6889C25.6981 48.4519 25.5499 48.2919 25.2536 48.2089C25.1588 48.1852 24.7973 48.0844 24.1692 47.9067C23.541 47.7289 23.0255 47.4089 22.6225 46.9467C22.2314 46.4726 22.0358 45.8859 22.0358 45.1867C22.0358 44.8193 22.1188 44.4104 22.2847 43.96C22.4506 43.5096 22.6284 43.2252 22.8181 43.1067C22.9603 43.0119 23.304 42.917 23.8492 42.8222C24.3944 42.7156 24.8981 42.6622 25.3603 42.6622C26.344 42.6622 27.3336 42.7333 28.3292 42.8756C28.3292 43.0889 28.2995 43.4504 28.2403 43.96C28.181 44.4578 28.1277 44.7719 28.0803 44.9022C27.0729 44.7719 26.261 44.7067 25.6447 44.7067C25.3247 44.7067 25.1173 44.7244 25.0225 44.76C24.9988 44.7719 24.9751 44.8074 24.9514 44.8667C24.9277 44.9141 24.9158 44.9793 24.9158 45.0622C24.9158 45.2281 24.9692 45.3467 25.0758 45.4178C25.1825 45.5007 25.461 45.6015 25.9114 45.72C26.4447 45.8741 26.901 46.0341 27.2803 46.2C27.6714 46.3659 28.0092 46.6148 28.2936 46.9467C28.5899 47.2785 28.7381 47.7052 28.7381 48.2267ZM38.4396 51H35.1329L33.444 47.6756C33.2781 47.3319 33.0588 47.1126 32.7863 47.0178V51H29.7463V40.3333L32.7863 40.2089V46.2711C33.0707 46.1526 33.3137 45.9096 33.5151 45.5422L35.0263 42.8222L38.3507 42.8044L36.6263 45.5778C36.3537 46.0163 36.0574 46.3659 35.7374 46.6267C36.01 46.923 36.3181 47.3733 36.6618 47.9778L38.4396 51ZM45.6999 48.2267C45.6999 49.2815 45.3621 50.04 44.6865 50.5022C44.0228 50.9644 43.0747 51.1956 41.8421 51.1956C40.9769 51.1956 39.9813 51.0711 38.8554 50.8222C38.8791 50.5852 38.9325 50.2474 39.0154 49.8089C39.1102 49.3585 39.1873 49.0148 39.2465 48.7778C39.6732 48.8489 40.1473 48.9081 40.6688 48.9556C41.1902 48.9911 41.6347 49.0089 42.0021 49.0089C42.3221 49.0089 42.5176 48.9911 42.5888 48.9556C42.6006 48.9437 42.6125 48.9141 42.6243 48.8667C42.648 48.8074 42.6599 48.7481 42.6599 48.6889C42.6599 48.4519 42.5117 48.2919 42.2154 48.2089C42.1206 48.1852 41.7591 48.0844 41.131 47.9067C40.5028 47.7289 39.9873 47.4089 39.5843 46.9467C39.1932 46.4726 38.9976 45.8859 38.9976 45.1867C38.9976 44.8193 39.0806 44.4104 39.2465 43.96C39.4125 43.5096 39.5902 43.2252 39.7799 43.1067C39.9221 43.0119 40.2658 42.917 40.811 42.8222C41.3562 42.7156 41.8599 42.6622 42.3221 42.6622C43.3058 42.6622 44.2954 42.7333 45.291 42.8756C45.291 43.0889 45.2613 43.4504 45.2021 43.96C45.1428 44.4578 45.0895 44.7719 45.0421 44.9022C44.0347 44.7719 43.2228 44.7067 42.6065 44.7067C42.2865 44.7067 42.0791 44.7244 41.9843 44.76C41.9606 44.7719 41.9369 44.8074 41.9132 44.8667C41.8895 44.9141 41.8776 44.9793 41.8776 45.0622C41.8776 45.2281 41.931 45.3467 42.0376 45.4178C42.1443 45.5007 42.4228 45.6015 42.8732 45.72C43.4065 45.8741 43.8628 46.0341 44.2421 46.2C44.6332 46.3659 44.971 46.6148 45.2554 46.9467C45.5517 47.2785 45.6999 47.7052 45.6999 48.2267Z" fill="black"/>
<line x1="47.5" y1="29" x2="47.5" y2="51" stroke="#29663B" stroke-width="3"/>
<line x1="46" y1="49.5" x2="68" y2="49.5" stroke="#29663B" stroke-width="3"/>
<line x1="67.5" y1="37" x2="67.5" y2="51" stroke="#29663B" stroke-width="3"/>
<line x1="69" y1="30.5" x2="47" y2="30.5" stroke="#29663B" stroke-width="3"/>
<line x1="51.4142" y1="36.5858" x2="58.4142" y2="43.5858" stroke="#29663B" stroke-width="4"/>
<line x1="71.9508" y1="27.3453" x2="56.4799" y2="44.3645" stroke="#29663B" stroke-width="4"/>
</svg>
